<mxfile host="app.diagrams.net" modified="2021-11-04T01:47:23.700Z" agent="5.0 (Windows NT 10.0; Win64; x64) AppleWebKit/537.36 (KHTML, like Gecko) Chrome/95.0.4638.54 Safari/537.36" etag="2Qqmz7oG6Qp2w1CMIMhj" version="15.6.8" type="gitlab">
  <diagram id="sSSUooNmsP8sfFR26BnM" name="Page-1">
    <mxGraphModel dx="3416" dy="1540" grid="1" gridSize="11" guides="1" tooltips="1" connect="1" arrows="1" fold="1" page="1" pageScale="1" pageWidth="850" pageHeight="1100" math="0" shadow="0">
      <root>
        <mxCell id="0" />
        <mxCell id="1" parent="0" />
        <object label="User" User="1" USER="" id="bzA-kNj4SdmjWdbAsyWA-1">
          <mxCell style="shape=umlActor;verticalLabelPosition=bottom;verticalAlign=top;outlineConnect=0;align=center;html=1;strokeWidth=2;fontSize=25;fillColor=#ffe6cc;strokeColor=#d79b00;" vertex="1" parent="1">
            <mxGeometry x="-770" y="660" width="130" height="290" as="geometry" />
          </mxCell>
        </object>
        <mxCell id="bzA-kNj4SdmjWdbAsyWA-2" value="" style="rounded=0;whiteSpace=wrap;html=1;fillColor=#f5f5f5;fontColor=#333333;strokeColor=#666666;" vertex="1" parent="1">
          <mxGeometry x="-407" y="42.99" width="1375" height="1463" as="geometry" />
        </mxCell>
        <object label="Guest" User="" id="bzA-kNj4SdmjWdbAsyWA-3">
          <mxCell style="shape=umlActor;verticalLabelPosition=bottom;verticalAlign=top;html=1;outlineConnect=0;fontFamily=Helvetica;strokeWidth=2;fontSize=25;" vertex="1" parent="1">
            <mxGeometry x="-765" y="155" width="140" height="310" as="geometry" />
          </mxCell>
        </object>
        <mxCell id="bzA-kNj4SdmjWdbAsyWA-10" value="" style="endArrow=none;html=1;rounded=0;fontFamily=Helvetica;exitX=0.5;exitY=0.5;exitDx=0;exitDy=0;exitPerimeter=0;entryX=0;entryY=0.5;entryDx=0;entryDy=0;strokeWidth=2;" edge="1" parent="1" source="bzA-kNj4SdmjWdbAsyWA-3" target="bzA-kNj4SdmjWdbAsyWA-11">
          <mxGeometry width="50" height="50" relative="1" as="geometry">
            <mxPoint x="-40" y="370" as="sourcePoint" />
            <mxPoint x="-210" y="330" as="targetPoint" />
          </mxGeometry>
        </mxCell>
        <mxCell id="bzA-kNj4SdmjWdbAsyWA-11" value="&lt;span style=&quot;font-size: 21px&quot;&gt;Sign up&lt;/span&gt;" style="ellipse;whiteSpace=wrap;html=1;fontFamily=Helvetica;align=center;" vertex="1" parent="1">
          <mxGeometry x="-350" y="240" width="210" height="100" as="geometry" />
        </mxCell>
        <mxCell id="bzA-kNj4SdmjWdbAsyWA-17" value="" style="endArrow=openThin;html=1;rounded=0;fontFamily=Helvetica;fontSize=21;dashed=1;endFill=0;entryX=1;entryY=0;entryDx=0;entryDy=0;strokeWidth=2;exitX=0.36;exitY=0.083;exitDx=0;exitDy=0;exitPerimeter=0;labelPosition=left;verticalLabelPosition=top;align=right;verticalAlign=bottom;horizontal=1;spacingTop=0;fontStyle=0" edge="1" parent="1" source="bzA-kNj4SdmjWdbAsyWA-2" target="bzA-kNj4SdmjWdbAsyWA-11">
          <mxGeometry x="-0.2217" y="-34" width="50" height="50" relative="1" as="geometry">
            <mxPoint x="20" y="440" as="sourcePoint" />
            <mxPoint x="29" y="300" as="targetPoint" />
            <mxPoint as="offset" />
          </mxGeometry>
        </mxCell>
        <mxCell id="bzA-kNj4SdmjWdbAsyWA-18" value="{extend}" style="text;html=1;strokeColor=#b85450;fillColor=#f8cecc;align=center;verticalAlign=middle;whiteSpace=wrap;rounded=0;fontFamily=Helvetica;fontSize=21;rotation=-20;" vertex="1" parent="1">
          <mxGeometry x="-150" y="198" width="60" height="30" as="geometry" />
        </mxCell>
        <mxCell id="bzA-kNj4SdmjWdbAsyWA-20" value="{extend}" style="text;html=1;strokeColor=#b85450;fillColor=#f8cecc;align=center;verticalAlign=middle;whiteSpace=wrap;rounded=0;fontFamily=Helvetica;fontSize=21;rotation=0;" vertex="1" parent="1">
          <mxGeometry x="-109.99923788646683" y="280.00038105676657" width="60" height="30" as="geometry" />
        </mxCell>
        <mxCell id="bzA-kNj4SdmjWdbAsyWA-21" value="{extend}" style="text;html=1;strokeColor=none;fillColor=none;align=center;verticalAlign=middle;whiteSpace=wrap;rounded=0;fontFamily=Helvetica;fontSize=21;rotation=-30;" vertex="1" parent="1">
          <mxGeometry x="-446.51923788646684" y="42.99038105676658" width="60" height="30" as="geometry" />
        </mxCell>
        <mxCell id="bzA-kNj4SdmjWdbAsyWA-22" value="{extend}" style="text;html=1;strokeColor=none;fillColor=none;align=center;verticalAlign=middle;whiteSpace=wrap;rounded=0;fontFamily=Helvetica;fontSize=21;rotation=-30;" vertex="1" parent="1">
          <mxGeometry x="-546.5192378864668" y="102.99038105676658" width="60" height="30" as="geometry" />
        </mxCell>
        <mxCell id="bzA-kNj4SdmjWdbAsyWA-23" value="{extend}" style="text;html=1;strokeColor=#b85450;fillColor=#f8cecc;align=center;verticalAlign=middle;whiteSpace=wrap;rounded=0;fontFamily=Helvetica;fontSize=21;rotation=45;" vertex="1" parent="1">
          <mxGeometry x="-139.99923788646683" y="352.00038105676657" width="60" height="30" as="geometry" />
        </mxCell>
        <mxCell id="bzA-kNj4SdmjWdbAsyWA-25" value="" style="endArrow=openThin;html=1;rounded=0;fontFamily=Helvetica;fontSize=21;dashed=1;endFill=0;strokeWidth=2;exitX=0;exitY=0.5;exitDx=0;exitDy=0;labelPosition=left;verticalLabelPosition=top;align=right;verticalAlign=bottom;horizontal=1;spacingTop=0;fontStyle=0;entryX=0.952;entryY=0.7;entryDx=0;entryDy=0;entryPerimeter=0;" edge="1" parent="1" source="bzA-kNj4SdmjWdbAsyWA-27" target="bzA-kNj4SdmjWdbAsyWA-11">
          <mxGeometry x="-0.2217" y="-34" width="50" height="50" relative="1" as="geometry">
            <mxPoint x="-110" y="70" as="sourcePoint" />
            <mxPoint x="-180.95378797541275" y="114.17466094067277" as="targetPoint" />
            <mxPoint as="offset" />
          </mxGeometry>
        </mxCell>
        <mxCell id="bzA-kNj4SdmjWdbAsyWA-26" value="&lt;span style=&quot;font-size: 21px&quot;&gt;Sign up with Twitter&lt;/span&gt;" style="ellipse;whiteSpace=wrap;html=1;fontFamily=Helvetica;align=center;" vertex="1" parent="1">
          <mxGeometry x="-66" y="140" width="210" height="100" as="geometry" />
        </mxCell>
        <mxCell id="bzA-kNj4SdmjWdbAsyWA-27" value="&lt;span style=&quot;font-size: 21px&quot;&gt;Sign up with Facebook&lt;/span&gt;" style="ellipse;whiteSpace=wrap;html=1;fontFamily=Helvetica;align=center;" vertex="1" parent="1">
          <mxGeometry x="-34" y="260" width="210" height="100" as="geometry" />
        </mxCell>
        <mxCell id="bzA-kNj4SdmjWdbAsyWA-28" value="" style="endArrow=openThin;html=1;rounded=0;fontFamily=Helvetica;fontSize=21;dashed=1;endFill=0;entryX=0;entryY=0.5;entryDx=0;entryDy=0;strokeWidth=2;labelPosition=left;verticalLabelPosition=top;align=right;verticalAlign=bottom;horizontal=1;spacingTop=0;fontStyle=0;exitX=1;exitY=0.5;exitDx=0;exitDy=0;" edge="1" parent="1" source="bzA-kNj4SdmjWdbAsyWA-47" target="bzA-kNj4SdmjWdbAsyWA-49">
          <mxGeometry x="-0.2217" y="-34" width="50" height="50" relative="1" as="geometry">
            <mxPoint x="-110" y="919.99" as="sourcePoint" />
            <mxPoint x="-210.33000000000015" y="890" as="targetPoint" />
            <mxPoint as="offset" />
            <Array as="points" />
          </mxGeometry>
        </mxCell>
        <mxCell id="bzA-kNj4SdmjWdbAsyWA-29" value="" style="endArrow=openThin;html=1;rounded=0;fontFamily=Helvetica;fontSize=21;dashed=1;endFill=0;strokeWidth=2;exitX=-0.001;exitY=0.422;exitDx=0;exitDy=0;exitPerimeter=0;labelPosition=left;verticalLabelPosition=top;align=right;verticalAlign=bottom;horizontal=1;spacingTop=0;fontStyle=0;entryX=1;entryY=1;entryDx=0;entryDy=0;" edge="1" parent="1" source="bzA-kNj4SdmjWdbAsyWA-30" target="bzA-kNj4SdmjWdbAsyWA-11">
          <mxGeometry x="-0.2217" y="-34" width="50" height="50" relative="1" as="geometry">
            <mxPoint x="-110" y="60" as="sourcePoint" />
            <mxPoint x="-210.33000000000015" y="30.00999999999999" as="targetPoint" />
            <mxPoint as="offset" />
          </mxGeometry>
        </mxCell>
        <mxCell id="bzA-kNj4SdmjWdbAsyWA-30" value="&lt;span style=&quot;font-size: 21px&quot;&gt;Sign up with Google&lt;/span&gt;" style="ellipse;whiteSpace=wrap;html=1;fontFamily=Helvetica;align=center;" vertex="1" parent="1">
          <mxGeometry x="-80" y="374" width="210" height="100" as="geometry" />
        </mxCell>
        <mxCell id="bzA-kNj4SdmjWdbAsyWA-31" value="" style="endArrow=none;html=1;rounded=0;fontFamily=Helvetica;fontSize=21;strokeWidth=2;align=right;verticalAlign=bottom;exitX=0.5;exitY=0.5;exitDx=0;exitDy=0;exitPerimeter=0;entryX=0;entryY=0.5;entryDx=0;entryDy=0;" edge="1" parent="1" source="bzA-kNj4SdmjWdbAsyWA-3" target="bzA-kNj4SdmjWdbAsyWA-33">
          <mxGeometry width="50" height="50" relative="1" as="geometry">
            <mxPoint x="-470" y="470" as="sourcePoint" />
            <mxPoint x="-340" y="480" as="targetPoint" />
          </mxGeometry>
        </mxCell>
        <mxCell id="bzA-kNj4SdmjWdbAsyWA-33" value="&lt;span style=&quot;font-size: 21px&quot;&gt;Log in&amp;nbsp;&lt;/span&gt;" style="ellipse;whiteSpace=wrap;html=1;fontFamily=Helvetica;align=center;" vertex="1" parent="1">
          <mxGeometry x="-350" y="420" width="210" height="100" as="geometry" />
        </mxCell>
        <mxCell id="bzA-kNj4SdmjWdbAsyWA-34" value="" style="endArrow=none;html=1;rounded=0;fontFamily=Helvetica;fontSize=21;strokeWidth=2;align=right;verticalAlign=bottom;exitX=0.5;exitY=0.5;exitDx=0;exitDy=0;exitPerimeter=0;entryX=0;entryY=0.5;entryDx=0;entryDy=0;fillColor=#fff2cc;strokeColor=#d6b656;" edge="1" parent="1" source="bzA-kNj4SdmjWdbAsyWA-1" target="bzA-kNj4SdmjWdbAsyWA-36">
          <mxGeometry width="50" height="50" relative="1" as="geometry">
            <mxPoint x="-470" y="640" as="sourcePoint" />
            <mxPoint x="-420" y="590" as="targetPoint" />
          </mxGeometry>
        </mxCell>
        <mxCell id="bzA-kNj4SdmjWdbAsyWA-36" value="&lt;span style=&quot;font-size: 21px&quot;&gt;Go to the &quot;HOME&quot; page&amp;nbsp;&lt;/span&gt;" style="ellipse;whiteSpace=wrap;html=1;fontFamily=Helvetica;align=center;" vertex="1" parent="1">
          <mxGeometry x="-350" y="650" width="210" height="100" as="geometry" />
        </mxCell>
        <mxCell id="bzA-kNj4SdmjWdbAsyWA-37" value="" style="endArrow=openThin;html=1;rounded=0;fontFamily=Helvetica;fontSize=21;dashed=1;endFill=0;strokeWidth=2;exitX=1;exitY=0;exitDx=0;exitDy=0;labelPosition=left;verticalLabelPosition=top;align=right;verticalAlign=bottom;horizontal=1;spacingTop=0;fontStyle=0;entryX=0;entryY=0.5;entryDx=0;entryDy=0;" edge="1" parent="1" source="bzA-kNj4SdmjWdbAsyWA-36" target="bzA-kNj4SdmjWdbAsyWA-39">
          <mxGeometry x="-0.2217" y="-34" width="50" height="50" relative="1" as="geometry">
            <mxPoint x="10.329999999999998" y="719.99" as="sourcePoint" />
            <mxPoint x="-60" y="665" as="targetPoint" />
            <mxPoint as="offset" />
          </mxGeometry>
        </mxCell>
        <mxCell id="bzA-kNj4SdmjWdbAsyWA-39" value="&lt;span style=&quot;font-size: 21px&quot;&gt;Add post to the &quot;Bookmarks&quot;&lt;/span&gt;" style="ellipse;whiteSpace=wrap;html=1;fontFamily=Helvetica;align=center;" vertex="1" parent="1">
          <mxGeometry x="-80" y="550" width="210" height="100" as="geometry" />
        </mxCell>
        <mxCell id="bzA-kNj4SdmjWdbAsyWA-40" value="" style="endArrow=openThin;html=1;rounded=0;fontFamily=Helvetica;fontSize=21;dashed=1;endFill=0;strokeWidth=2;exitX=1;exitY=0.5;exitDx=0;exitDy=0;labelPosition=left;verticalLabelPosition=top;align=right;verticalAlign=bottom;horizontal=1;spacingTop=0;fontStyle=0;entryX=0.003;entryY=0.4;entryDx=0;entryDy=0;entryPerimeter=0;" edge="1" parent="1" source="bzA-kNj4SdmjWdbAsyWA-36">
          <mxGeometry x="-0.2217" y="-34" width="50" height="50" relative="1" as="geometry">
            <mxPoint x="10.54000000000002" y="856.8399999999999" as="sourcePoint" />
            <mxPoint x="-49.36999999999989" y="700" as="targetPoint" />
            <mxPoint as="offset" />
          </mxGeometry>
        </mxCell>
        <mxCell id="bzA-kNj4SdmjWdbAsyWA-47" value="&lt;span style=&quot;font-size: 21px&quot;&gt;Go to the &quot;Work&amp;amp;Study&quot; page&amp;nbsp;&lt;/span&gt;" style="ellipse;whiteSpace=wrap;html=1;fontFamily=Helvetica;align=center;" vertex="1" parent="1">
          <mxGeometry x="-360" y="795" width="210" height="100" as="geometry" />
        </mxCell>
        <mxCell id="bzA-kNj4SdmjWdbAsyWA-48" value="" style="endArrow=none;html=1;rounded=0;fontFamily=Helvetica;fontSize=21;strokeWidth=2;align=right;verticalAlign=bottom;exitX=0.5;exitY=0.5;exitDx=0;exitDy=0;exitPerimeter=0;entryX=0;entryY=0.5;entryDx=0;entryDy=0;fillColor=#fff2cc;strokeColor=#d6b656;" edge="1" parent="1" source="bzA-kNj4SdmjWdbAsyWA-1" target="bzA-kNj4SdmjWdbAsyWA-47">
          <mxGeometry width="50" height="50" relative="1" as="geometry">
            <mxPoint x="-160" y="910" as="sourcePoint" />
            <mxPoint x="-110" y="860" as="targetPoint" />
          </mxGeometry>
        </mxCell>
        <mxCell id="bzA-kNj4SdmjWdbAsyWA-49" value="&lt;span style=&quot;font-size: 21px&quot;&gt;Send a request to join in to the project or research team&lt;/span&gt;" style="ellipse;whiteSpace=wrap;html=1;fontFamily=Helvetica;align=center;" vertex="1" parent="1">
          <mxGeometry x="-50" y="795" width="310" height="100" as="geometry" />
        </mxCell>
        <mxCell id="bzA-kNj4SdmjWdbAsyWA-51" value="&lt;span style=&quot;font-size: 21px&quot;&gt;Go to the &quot;Bookmarks&quot; page&amp;nbsp;&lt;/span&gt;" style="ellipse;whiteSpace=wrap;html=1;fontFamily=Helvetica;align=center;" vertex="1" parent="1">
          <mxGeometry x="-360" y="930" width="210" height="100" as="geometry" />
        </mxCell>
        <mxCell id="bzA-kNj4SdmjWdbAsyWA-52" value="" style="endArrow=none;html=1;rounded=0;fontFamily=Helvetica;fontSize=21;strokeWidth=2;align=right;verticalAlign=bottom;exitX=0.5;exitY=0.5;exitDx=0;exitDy=0;exitPerimeter=0;entryX=0;entryY=0.5;entryDx=0;entryDy=0;fillColor=#fff2cc;strokeColor=#d6b656;" edge="1" parent="1" source="bzA-kNj4SdmjWdbAsyWA-1" target="bzA-kNj4SdmjWdbAsyWA-51">
          <mxGeometry width="50" height="50" relative="1" as="geometry">
            <mxPoint x="-440" y="640" as="sourcePoint" />
            <mxPoint x="-390" y="590" as="targetPoint" />
          </mxGeometry>
        </mxCell>
        <mxCell id="bzA-kNj4SdmjWdbAsyWA-56" value="" style="endArrow=none;html=1;rounded=0;fontFamily=Helvetica;fontSize=21;strokeWidth=2;align=right;verticalAlign=bottom;exitX=0.5;exitY=0.5;exitDx=0;exitDy=0;exitPerimeter=0;entryX=0;entryY=0.5;entryDx=0;entryDy=0;fillColor=#fff2cc;strokeColor=#d6b656;" edge="1" parent="1" source="bzA-kNj4SdmjWdbAsyWA-1" target="bzA-kNj4SdmjWdbAsyWA-57">
          <mxGeometry width="50" height="50" relative="1" as="geometry">
            <mxPoint x="-270" y="950" as="sourcePoint" />
            <mxPoint x="-220" y="900" as="targetPoint" />
          </mxGeometry>
        </mxCell>
        <mxCell id="bzA-kNj4SdmjWdbAsyWA-57" value="&lt;span style=&quot;font-size: 21px&quot;&gt;Go to the &quot;Profile&quot; page&lt;/span&gt;" style="ellipse;whiteSpace=wrap;html=1;fontFamily=Helvetica;align=center;" vertex="1" parent="1">
          <mxGeometry x="-360" y="1067" width="210" height="100" as="geometry" />
        </mxCell>
        <mxCell id="bzA-kNj4SdmjWdbAsyWA-58" style="edgeStyle=orthogonalEdgeStyle;rounded=0;orthogonalLoop=1;jettySize=auto;html=1;exitX=0.5;exitY=1;exitDx=0;exitDy=0;fontFamily=Helvetica;fontSize=21;endArrow=openThin;endFill=0;strokeWidth=2;align=right;verticalAlign=bottom;" edge="1" parent="1" source="bzA-kNj4SdmjWdbAsyWA-57" target="bzA-kNj4SdmjWdbAsyWA-57">
          <mxGeometry relative="1" as="geometry" />
        </mxCell>
        <object label="Admin" User="" id="bzA-kNj4SdmjWdbAsyWA-60">
          <mxCell style="shape=umlActor;verticalLabelPosition=bottom;verticalAlign=top;html=1;outlineConnect=0;fontFamily=Helvetica;strokeWidth=2;fontSize=25;fillColor=#e1d5e7;strokeColor=#9673a6;" vertex="1" parent="1">
            <mxGeometry x="1034" y="808.25" width="140" height="310" as="geometry" />
          </mxCell>
        </object>
        <object label="Publisher" User="" id="bzA-kNj4SdmjWdbAsyWA-62">
          <mxCell style="shape=umlActor;verticalLabelPosition=bottom;verticalAlign=top;html=1;outlineConnect=0;fontFamily=Helvetica;strokeWidth=2;fontSize=25;fillColor=#d5e8d4;strokeColor=#82b366;" vertex="1" parent="1">
            <mxGeometry x="-775" y="1133" width="140" height="310" as="geometry" />
          </mxCell>
        </object>
        <mxCell id="bzA-kNj4SdmjWdbAsyWA-65" value="&lt;span style=&quot;font-size: 21px&quot;&gt;Send a request to become a publisher&lt;/span&gt;" style="ellipse;whiteSpace=wrap;html=1;fontFamily=Helvetica;align=center;" vertex="1" parent="1">
          <mxGeometry x="-22" y="1067" width="210" height="100" as="geometry" />
        </mxCell>
        <mxCell id="bzA-kNj4SdmjWdbAsyWA-66" value="&lt;span style=&quot;font-size: 21px&quot;&gt;Edit profile&lt;/span&gt;" style="ellipse;whiteSpace=wrap;html=1;fontFamily=Helvetica;align=center;" vertex="1" parent="1">
          <mxGeometry x="-22" y="935" width="210" height="100" as="geometry" />
        </mxCell>
        <mxCell id="bzA-kNj4SdmjWdbAsyWA-67" value="" style="endArrow=openThin;html=1;rounded=0;fontFamily=Helvetica;fontSize=21;dashed=1;endFill=0;entryX=0;entryY=0.5;entryDx=0;entryDy=0;strokeWidth=2;labelPosition=left;verticalLabelPosition=top;align=right;verticalAlign=bottom;horizontal=1;spacingTop=0;fontStyle=0;exitX=1;exitY=0.5;exitDx=0;exitDy=0;" edge="1" parent="1" target="bzA-kNj4SdmjWdbAsyWA-65">
          <mxGeometry x="-0.2217" y="-34" width="50" height="50" relative="1" as="geometry">
            <mxPoint x="-150" y="1116" as="sourcePoint" />
            <mxPoint x="-50" y="1116" as="targetPoint" />
            <mxPoint as="offset" />
            <Array as="points" />
          </mxGeometry>
        </mxCell>
        <mxCell id="bzA-kNj4SdmjWdbAsyWA-69" value="" style="endArrow=openThin;html=1;rounded=0;fontFamily=Helvetica;fontSize=21;dashed=1;endFill=0;entryX=0;entryY=0.5;entryDx=0;entryDy=0;strokeWidth=2;labelPosition=left;verticalLabelPosition=top;align=right;verticalAlign=bottom;horizontal=1;spacingTop=0;fontStyle=0;exitX=1;exitY=0.5;exitDx=0;exitDy=0;" edge="1" parent="1" source="bzA-kNj4SdmjWdbAsyWA-57" target="bzA-kNj4SdmjWdbAsyWA-66">
          <mxGeometry x="-0.2217" y="-34" width="50" height="50" relative="1" as="geometry">
            <mxPoint x="-150" y="1056" as="sourcePoint" />
            <mxPoint x="-33" y="1057" as="targetPoint" />
            <mxPoint as="offset" />
            <Array as="points" />
          </mxGeometry>
        </mxCell>
        <mxCell id="bzA-kNj4SdmjWdbAsyWA-75" value="&lt;span style=&quot;font-size: 21px&quot;&gt;Explore in the search bar&lt;/span&gt;" style="ellipse;whiteSpace=wrap;html=1;fontFamily=Helvetica;align=center;" vertex="1" parent="1">
          <mxGeometry x="-350" y="1364" width="210" height="100" as="geometry" />
        </mxCell>
        <mxCell id="bzA-kNj4SdmjWdbAsyWA-76" value="" style="endArrow=none;html=1;rounded=0;fontFamily=Helvetica;fontSize=25;strokeWidth=2;align=right;verticalAlign=bottom;entryX=0.5;entryY=0.5;entryDx=0;entryDy=0;entryPerimeter=0;exitX=0;exitY=0.5;exitDx=0;exitDy=0;fillColor=#fff2cc;strokeColor=#d6b656;" edge="1" parent="1" source="bzA-kNj4SdmjWdbAsyWA-75" target="bzA-kNj4SdmjWdbAsyWA-1">
          <mxGeometry width="50" height="50" relative="1" as="geometry">
            <mxPoint x="11" y="1095" as="sourcePoint" />
            <mxPoint x="61" y="1045" as="targetPoint" />
          </mxGeometry>
        </mxCell>
        <mxCell id="bzA-kNj4SdmjWdbAsyWA-79" value="" style="endArrow=openThin;html=1;rounded=0;fontFamily=Helvetica;fontSize=21;dashed=1;endFill=0;strokeWidth=2;labelPosition=left;verticalLabelPosition=top;align=right;verticalAlign=bottom;horizontal=1;spacingTop=0;fontStyle=0;entryX=0;entryY=0.5;entryDx=0;entryDy=0;exitX=1;exitY=0.5;exitDx=0;exitDy=0;" edge="1" parent="1" source="bzA-kNj4SdmjWdbAsyWA-75" target="bzA-kNj4SdmjWdbAsyWA-80">
          <mxGeometry x="-0.2217" y="-34" width="50" height="50" relative="1" as="geometry">
            <mxPoint x="-110" y="1264" as="sourcePoint" />
            <mxPoint x="-59.24621202458775" y="1198.9953390593273" as="targetPoint" />
            <mxPoint as="offset" />
          </mxGeometry>
        </mxCell>
        <mxCell id="bzA-kNj4SdmjWdbAsyWA-80" value="&lt;span style=&quot;font-size: 21px&quot;&gt;Add post to the &quot;Bookmarks&quot;&lt;/span&gt;" style="ellipse;whiteSpace=wrap;html=1;fontFamily=Helvetica;align=center;" vertex="1" parent="1">
          <mxGeometry x="-11" y="1232" width="210" height="100" as="geometry" />
        </mxCell>
        <mxCell id="bzA-kNj4SdmjWdbAsyWA-81" value="&lt;span style=&quot;font-size: 21px&quot;&gt;Add invitation to the meeting to the&amp;nbsp;&lt;br&gt;&quot;Bookmarks&quot;&amp;nbsp;&lt;/span&gt;" style="ellipse;whiteSpace=wrap;html=1;fontFamily=Helvetica;align=center;" vertex="1" parent="1">
          <mxGeometry x="-11" y="1375" width="226" height="100" as="geometry" />
        </mxCell>
        <mxCell id="bzA-kNj4SdmjWdbAsyWA-83" value="&lt;span style=&quot;font-size: 21px&quot;&gt;Add invitation to the meeting to the&amp;nbsp;&lt;br&gt;&quot;Bookmarks&quot;&amp;nbsp;&lt;/span&gt;" style="ellipse;whiteSpace=wrap;html=1;fontFamily=Helvetica;align=center;" vertex="1" parent="1">
          <mxGeometry x="-50" y="660" width="226" height="100" as="geometry" />
        </mxCell>
        <mxCell id="bzA-kNj4SdmjWdbAsyWA-84" value="" style="endArrow=openThin;html=1;rounded=0;fontFamily=Helvetica;fontSize=21;dashed=1;endFill=0;strokeWidth=2;exitX=1;exitY=0.5;exitDx=0;exitDy=0;labelPosition=left;verticalLabelPosition=top;align=right;verticalAlign=bottom;horizontal=1;spacingTop=0;fontStyle=0;entryX=0;entryY=0.5;entryDx=0;entryDy=0;" edge="1" parent="1" source="bzA-kNj4SdmjWdbAsyWA-75" target="bzA-kNj4SdmjWdbAsyWA-81">
          <mxGeometry x="-0.2217" y="-34" width="50" height="50" relative="1" as="geometry">
            <mxPoint x="-150" y="1334.64" as="sourcePoint" />
            <mxPoint x="-50" y="1308.9999999999998" as="targetPoint" />
            <mxPoint as="offset" />
          </mxGeometry>
        </mxCell>
        <mxCell id="bzA-kNj4SdmjWdbAsyWA-89" value="" style="endArrow=none;html=1;rounded=0;fontFamily=Helvetica;fontSize=25;strokeWidth=2;align=right;verticalAlign=bottom;exitX=0.5;exitY=0.5;exitDx=0;exitDy=0;exitPerimeter=0;entryX=0;entryY=0.5;entryDx=0;entryDy=0;fillColor=#d5e8d4;strokeColor=#82b366;" edge="1" parent="1" source="bzA-kNj4SdmjWdbAsyWA-62" target="bzA-kNj4SdmjWdbAsyWA-36">
          <mxGeometry width="50" height="50" relative="1" as="geometry">
            <mxPoint x="440" y="1029" as="sourcePoint" />
            <mxPoint x="490" y="979" as="targetPoint" />
          </mxGeometry>
        </mxCell>
        <mxCell id="bzA-kNj4SdmjWdbAsyWA-90" value="" style="endArrow=none;html=1;rounded=0;fontFamily=Helvetica;fontSize=25;strokeWidth=2;align=right;verticalAlign=bottom;exitX=0.5;exitY=0.5;exitDx=0;exitDy=0;exitPerimeter=0;entryX=0;entryY=0.5;entryDx=0;entryDy=0;fillColor=#d5e8d4;strokeColor=#82b366;" edge="1" parent="1" source="bzA-kNj4SdmjWdbAsyWA-62" target="bzA-kNj4SdmjWdbAsyWA-47">
          <mxGeometry width="50" height="50" relative="1" as="geometry">
            <mxPoint x="440" y="1029" as="sourcePoint" />
            <mxPoint x="490" y="979" as="targetPoint" />
          </mxGeometry>
        </mxCell>
        <mxCell id="bzA-kNj4SdmjWdbAsyWA-91" value="" style="endArrow=none;html=1;rounded=0;fontFamily=Helvetica;fontSize=25;strokeWidth=2;align=right;verticalAlign=bottom;exitX=0.5;exitY=0.5;exitDx=0;exitDy=0;exitPerimeter=0;entryX=0;entryY=0.5;entryDx=0;entryDy=0;fillColor=#d5e8d4;strokeColor=#82b366;" edge="1" parent="1" source="bzA-kNj4SdmjWdbAsyWA-62" target="bzA-kNj4SdmjWdbAsyWA-51">
          <mxGeometry width="50" height="50" relative="1" as="geometry">
            <mxPoint x="440" y="1029" as="sourcePoint" />
            <mxPoint x="490" y="979" as="targetPoint" />
          </mxGeometry>
        </mxCell>
        <mxCell id="bzA-kNj4SdmjWdbAsyWA-92" value="" style="endArrow=none;html=1;rounded=0;fontFamily=Helvetica;fontSize=25;strokeWidth=2;align=right;verticalAlign=bottom;exitX=0.5;exitY=0.5;exitDx=0;exitDy=0;exitPerimeter=0;entryX=0;entryY=0.5;entryDx=0;entryDy=0;fillColor=#d5e8d4;strokeColor=#82b366;" edge="1" parent="1" source="bzA-kNj4SdmjWdbAsyWA-62" target="bzA-kNj4SdmjWdbAsyWA-57">
          <mxGeometry width="50" height="50" relative="1" as="geometry">
            <mxPoint x="440" y="1029" as="sourcePoint" />
            <mxPoint x="490" y="979" as="targetPoint" />
          </mxGeometry>
        </mxCell>
        <mxCell id="bzA-kNj4SdmjWdbAsyWA-93" value="" style="endArrow=none;html=1;rounded=0;fontFamily=Helvetica;fontSize=25;strokeWidth=2;align=right;verticalAlign=bottom;exitX=0.5;exitY=0.5;exitDx=0;exitDy=0;exitPerimeter=0;entryX=0;entryY=0.5;entryDx=0;entryDy=0;fillColor=#d5e8d4;strokeColor=#82b366;" edge="1" parent="1" source="bzA-kNj4SdmjWdbAsyWA-62" target="bzA-kNj4SdmjWdbAsyWA-75">
          <mxGeometry width="50" height="50" relative="1" as="geometry">
            <mxPoint x="440" y="1029" as="sourcePoint" />
            <mxPoint x="490" y="979" as="targetPoint" />
          </mxGeometry>
        </mxCell>
        <mxCell id="bzA-kNj4SdmjWdbAsyWA-94" value="" style="endArrow=openThin;html=1;rounded=0;fontFamily=Helvetica;fontSize=21;dashed=1;endFill=0;entryX=1;entryY=0.5;entryDx=0;entryDy=0;strokeWidth=2;labelPosition=left;verticalLabelPosition=top;align=right;verticalAlign=bottom;horizontal=1;spacingTop=0;fontStyle=0;exitX=0;exitY=0.5;exitDx=0;exitDy=0;" edge="1" parent="1" source="bzA-kNj4SdmjWdbAsyWA-96" target="bzA-kNj4SdmjWdbAsyWA-65">
          <mxGeometry x="-0.2217" y="-34" width="50" height="50" relative="1" as="geometry">
            <mxPoint x="495" y="979.5" as="sourcePoint" />
            <mxPoint x="623" y="980.5000000000002" as="targetPoint" />
            <mxPoint as="offset" />
            <Array as="points" />
          </mxGeometry>
        </mxCell>
        <mxCell id="bzA-kNj4SdmjWdbAsyWA-96" value="&lt;span style=&quot;font-size: 21px&quot;&gt;Consideration of Applications&lt;/span&gt;" style="ellipse;whiteSpace=wrap;html=1;fontFamily=Helvetica;align=center;" vertex="1" parent="1">
          <mxGeometry x="341" y="913" width="210" height="100.5" as="geometry" />
        </mxCell>
        <mxCell id="bzA-kNj4SdmjWdbAsyWA-97" value="Approve the request" style="text;html=1;strokeColor=none;fillColor=none;align=center;verticalAlign=middle;whiteSpace=wrap;rounded=0;fontFamily=Helvetica;fontSize=25;rotation=-45;" vertex="1" parent="1">
          <mxGeometry x="144" y="989" width="214" height="41" as="geometry" />
        </mxCell>
        <mxCell id="bzA-kNj4SdmjWdbAsyWA-98" value="&lt;span style=&quot;font-size: 21px&quot;&gt;Decide to publish&lt;/span&gt;" style="ellipse;whiteSpace=wrap;html=1;fontFamily=Helvetica;align=center;" vertex="1" parent="1">
          <mxGeometry x="-360" y="1221" width="210" height="100" as="geometry" />
        </mxCell>
        <mxCell id="bzA-kNj4SdmjWdbAsyWA-99" value="" style="endArrow=none;html=1;rounded=0;fontFamily=Helvetica;fontSize=13;strokeWidth=2;align=right;verticalAlign=bottom;exitX=0.5;exitY=0.5;exitDx=0;exitDy=0;exitPerimeter=0;entryX=0;entryY=0.5;entryDx=0;entryDy=0;fillColor=#d5e8d4;strokeColor=#82b366;" edge="1" parent="1" source="bzA-kNj4SdmjWdbAsyWA-62" target="bzA-kNj4SdmjWdbAsyWA-98">
          <mxGeometry width="50" height="50" relative="1" as="geometry">
            <mxPoint x="-231" y="1260" as="sourcePoint" />
            <mxPoint x="-181" y="1210" as="targetPoint" />
          </mxGeometry>
        </mxCell>
        <mxCell id="bzA-kNj4SdmjWdbAsyWA-100" value="" style="endArrow=openThin;html=1;rounded=0;fontFamily=Helvetica;fontSize=21;dashed=1;endFill=0;strokeWidth=2;exitX=1;exitY=0;exitDx=0;exitDy=0;labelPosition=left;verticalLabelPosition=top;align=right;verticalAlign=bottom;horizontal=1;spacingTop=0;fontStyle=0;startArrow=none;entryX=0.5;entryY=1;entryDx=0;entryDy=0;" edge="1" parent="1" source="bzA-kNj4SdmjWdbAsyWA-103" target="bzA-kNj4SdmjWdbAsyWA-65">
          <mxGeometry x="-0.2217" y="-34" width="50" height="50" relative="1" as="geometry">
            <mxPoint x="-359.9999999999998" y="1324" as="sourcePoint" />
            <mxPoint x="-33" y="1122" as="targetPoint" />
            <mxPoint as="offset" />
          </mxGeometry>
        </mxCell>
        <mxCell id="bzA-kNj4SdmjWdbAsyWA-103" value="{include}" style="text;html=1;strokeColor=#b85450;fillColor=#f8cecc;align=center;verticalAlign=middle;whiteSpace=wrap;rounded=0;fontFamily=Helvetica;fontSize=21;rotation=0;" vertex="1" parent="1">
          <mxGeometry x="-80" y="1210" width="60" height="30" as="geometry" />
        </mxCell>
        <mxCell id="bzA-kNj4SdmjWdbAsyWA-104" value="" style="endArrow=none;html=1;rounded=0;fontFamily=Helvetica;fontSize=21;dashed=1;endFill=0;strokeWidth=2;exitX=1;exitY=0.5;exitDx=0;exitDy=0;labelPosition=left;verticalLabelPosition=top;align=right;verticalAlign=bottom;horizontal=1;spacingTop=0;fontStyle=0;entryX=0;entryY=0.663;entryDx=0;entryDy=0;entryPerimeter=0;" edge="1" parent="1" source="bzA-kNj4SdmjWdbAsyWA-98" target="bzA-kNj4SdmjWdbAsyWA-103">
          <mxGeometry x="-0.2217" y="-34" width="50" height="50" relative="1" as="geometry">
            <mxPoint x="-359.9999999999998" y="1425" as="sourcePoint" />
            <mxPoint x="-359.9999999999998" y="1328.8900000000003" as="targetPoint" />
            <mxPoint as="offset" />
          </mxGeometry>
        </mxCell>
        <mxCell id="bzA-kNj4SdmjWdbAsyWA-110" value="" style="endArrow=openThin;html=1;rounded=0;fontFamily=Helvetica;fontSize=21;dashed=1;endFill=0;strokeWidth=2;labelPosition=left;verticalLabelPosition=top;align=right;verticalAlign=bottom;horizontal=1;spacingTop=0;fontStyle=0;exitX=1;exitY=0.5;exitDx=0;exitDy=0;entryX=0;entryY=0.5;entryDx=0;entryDy=0;" edge="1" parent="1" target="bzA-kNj4SdmjWdbAsyWA-112">
          <mxGeometry x="-0.2217" y="-34" width="50" height="50" relative="1" as="geometry">
            <mxPoint x="260" y="844" as="sourcePoint" />
            <mxPoint x="360" y="844" as="targetPoint" />
            <mxPoint as="offset" />
            <Array as="points" />
          </mxGeometry>
        </mxCell>
        <mxCell id="bzA-kNj4SdmjWdbAsyWA-112" value="&lt;span style=&quot;font-size: 21px&quot;&gt;Plugging in to the other platforms for work(Gitlab,Github,Discord, Zoom and etc)&amp;nbsp;&lt;/span&gt;" style="ellipse;whiteSpace=wrap;html=1;fontFamily=Helvetica;align=center;" vertex="1" parent="1">
          <mxGeometry x="330" y="682" width="336" height="168" as="geometry" />
        </mxCell>
        <mxCell id="bzA-kNj4SdmjWdbAsyWA-114" value="" style="endArrow=none;html=1;rounded=0;fontFamily=Helvetica;fontSize=13;strokeWidth=2;align=right;verticalAlign=bottom;entryX=0.5;entryY=0.5;entryDx=0;entryDy=0;entryPerimeter=0;exitX=1;exitY=0.5;exitDx=0;exitDy=0;fillColor=#e1d5e7;strokeColor=#9673a6;" edge="1" parent="1" source="bzA-kNj4SdmjWdbAsyWA-96" target="bzA-kNj4SdmjWdbAsyWA-60">
          <mxGeometry width="50" height="50" relative="1" as="geometry">
            <mxPoint x="165" y="974" as="sourcePoint" />
            <mxPoint x="215" y="924" as="targetPoint" />
          </mxGeometry>
        </mxCell>
      </root>
    </mxGraphModel>
  </diagram>
</mxfile>
